<svg xmlns="http://www.w3.org/2000/svg" viewBox="0 0 1280 320">
  <g transform="matrix(6.835102, 0, 0, 6.837499, -61.837746, -77.265839)" style="">
    <path d="M24.941 27.016C24.66 27.016 24.594 26.891 24.73 26.703L26.191 25.004C26.328 24.812 26.676 24.688 26.953 24.688H51.754C52.031 24.688 52.102 24.875 51.961 25.066L50.781 26.703C50.641 26.891 50.293 27.078 50.086 27.078ZM24.941 27.016" fill="#00c9ff"></path>
    <path d="M14.449 32.805C14.172 32.805 14.105 32.68 14.242 32.488L15.703 30.789C15.84 30.602 16.188 30.477 16.465 30.477H48.141C48.418 30.477 48.559 30.664 48.488 30.855L47.934 32.363C47.863 32.613 47.586 32.742 47.309 32.742ZM14.449 32.805" fill="#00c9ff"></path>
    <path d="M31.262 38.59C30.984 38.59 30.914 38.402 31.051 38.215L32.023 36.641C32.164 36.453 32.441 36.266 32.719 36.266H46.613C46.891 36.266 47.027 36.453 47.027 36.703L46.891 38.215C46.891 38.465 46.613 38.656 46.402 38.656ZM31.262 38.59" fill="#00c9ff"></path>
    <path d="M 73.289 26.648 C 73.832 27.145 74.203 27.77 74.395 28.523 C 74.621 29.25 74.652 29.949 74.492 30.617 C 74.203 32.012 73.594 33.191 72.66 34.152 C 71.762 35.082 70.719 35.836 69.531 36.418 C 68.344 36.973 67.105 37.379 65.824 37.641 C 64.57 37.871 63.445 37.988 62.453 37.988 C 61.875 37.988 61.07 37.93 60.043 37.816 C 59.047 37.699 58.904 36.645 58.005 36.266 C 57.747 36.469 56.734 37.555 56.574 37.902 C 56.414 38.223 56.301 38.512 56.238 38.773 C 56.078 39.441 56.207 39.98 56.625 40.387 C 57.074 40.766 58.07 40.984 59.609 41.043 L 64.617 41.219 C 66.031 41.273 67.301 41.422 68.422 41.652 C 69.547 41.855 70.461 42.207 71.168 42.699 C 71.906 43.164 72.406 43.789 72.66 44.574 C 72.949 45.332 72.965 46.277 72.711 47.41 C 72.484 48.516 71.988 49.535 71.215 50.465 C 70.477 51.426 69.449 52.254 68.133 52.949 C 66.852 53.648 65.277 54.188 63.414 54.566 C 61.586 54.973 59.449 55.176 57.008 55.176 C 55.98 55.176 54.859 55.09 53.637 54.914 C 52.449 54.77 51.344 54.461 50.316 53.996 C 49.32 53.531 48.551 52.879 48.004 52.035 C 47.457 51.219 47.328 50.16 47.617 48.852 C 47.844 47.715 48.34 46.684 49.109 45.754 C 49.883 44.852 50.73 44.125 51.664 43.574 C 51.117 43.105 50.766 42.598 50.605 42.047 C 50.441 41.465 50.441 40.809 50.605 40.082 C 50.828 39.066 51.293 38.133 52 37.293 C 52.738 36.449 55.761 33.387 56.565 32.805 C 55.827 32.137 56.763 33.676 56.536 32.805 C 56.345 31.902 56.343 31.379 56.534 30.477 C 56.855 29.024 55.878 28.066 56.78 27.078 C 57.679 26.062 56.641 24.641 57.828 24.031 C 59.047 23.422 60.316 22.984 61.633 22.723 C 62.949 22.434 64.199 22.285 65.391 22.285 C 66.258 22.285 66.996 22.316 67.605 22.375 C 68.246 22.434 68.809 22.504 69.289 22.59 C 69.805 22.648 70.27 22.707 70.688 22.766 C 71.105 22.824 71.089 23.726 71.538 23.726 L 72.039 24.688 L 72.339 25.42 L 72.892 26.017 C 72.411 26.017 73.764 26.641 73.186 26.613 C 72.643 26.555 73.801 26.707 73.289 26.648 Z M 59.273 45.711 C 58.598 45.68 57.812 45.637 56.914 45.578 C 56.047 45.52 55.34 45.391 54.793 45.188 C 54.473 45.535 54.184 45.898 53.926 46.277 C 53.672 46.684 53.477 47.148 53.348 47.672 C 53.188 48.34 53.219 48.879 53.445 49.285 C 53.703 49.723 54.07 50.059 54.555 50.289 C 55.035 50.523 55.613 50.684 56.285 50.77 C 56.992 50.855 57.715 50.902 58.453 50.902 C 61.086 50.902 62.98 50.641 64.137 50.117 C 65.293 49.594 65.984 48.863 66.207 47.934 C 66.367 47.18 66.191 46.641 65.68 46.32 C 65.164 46 64.41 45.828 63.414 45.797 L 59.273 45.711 Z M 68.328 30.137 C 68.488 29.441 68.488 28.859 68.328 28.395 C 68.199 27.898 67.941 27.508 67.555 27.215 C 67.203 26.926 66.77 26.723 66.258 26.605 C 65.742 26.461 65.195 26.387 64.617 26.387 C 64.039 26.387 63.461 26.461 62.883 26.605 C 62.309 26.723 61.762 26.926 61.246 27.215 C 60.766 27.508 60.332 27.898 59.945 28.395 C 59.594 28.859 59.336 29.441 59.176 30.137 C 59.047 30.836 59.047 31.434 59.176 31.926 C 59.336 32.391 59.594 32.77 59.945 33.059 C 60.332 33.352 60.781 33.555 61.297 33.672 C 61.809 33.789 62.355 33.844 62.934 33.844 C 63.512 33.844 64.09 33.789 64.668 33.672 C 65.246 33.555 65.773 33.367 66.258 33.105 C 66.77 32.812 67.203 32.434 67.555 31.969 C 67.91 31.477 68.168 30.863 68.328 30.137 Z M 68.328 30.137" fill="#124191"></path>
    <path d="M88.395 23.465 83.676 44.836H77.27L84.059 14.172H90.852L99.52 35.109 104.145 14.172H110.547L103.758 44.836H97.496ZM88.395 23.465" fill="#124191"></path>
    <path d="M149.812 14.172 143.02 44.836H136.617L141.191 24.117 130.836 37.555H125.828L121.734 24.641 117.254 44.836H110.852L117.641 14.172H124.863L129.969 31.055 142.539 14.172ZM149.812 14.172" fill="#124191"></path>
    <path d="M156.961 44.836H150.168L156.961 14.172H163.75ZM156.961 44.836" fill="#124191"></path>
    <path d="M171.457 33.844C170.977 36.113 171.152 37.77 171.988 38.816 172.824 39.863 174.254 40.387 176.273 40.387 177.625 40.387 178.746 40.227 179.645 39.91 180.578 39.59 181.301 39.297 181.812 39.035L183.355 43.004C183.035 43.18 182.602 43.414 182.055 43.703 181.508 43.965 180.867 44.227 180.129 44.488 179.391 44.75 178.539 44.969 177.574 45.145 176.645 45.348 175.633 45.449 174.539 45.449 170.527 45.449 167.734 44.414 166.16 42.352 164.586 40.258 164.188 37.422 164.957 33.844 165.344 32.129 165.969 30.559 166.836 29.133 167.734 27.711 168.809 26.488 170.062 25.469 171.348 24.453 172.793 23.668 174.398 23.113 176 22.562 177.734 22.285 179.598 22.285 180.785 22.285 181.844 22.418 182.777 22.68 183.738 22.91 184.559 23.188 185.234 23.508 185.906 23.828 186.422 24.148 186.773 24.469 187.16 24.758 187.414 24.961 187.543 25.078L183.738 29.09C183.609 29.004 183.402 28.859 183.113 28.656 182.855 28.453 182.52 28.262 182.102 28.086 181.684 27.883 181.203 27.711 180.656 27.562 180.145 27.418 179.582 27.348 178.973 27.348 177.141 27.348 175.551 27.883 174.203 28.961 172.855 30.035 171.941 31.664 171.457 33.844ZM171.457 33.844" fill="#124191"></path>
  </g>
  <g transform="matrix(1, 0, 0, 1, 8.889358, -326.721619)">
    <path d="M 374.485 366.777 C 373.053 366.846 371.643 367.187 370.341 367.782 L 313.778 393.723 C 310.817 395.082 308.657 397.654 307.931 400.709 L 293.972 458.975 C 293.321 461.687 293.853 464.535 295.447 466.87 C 295.631 467.153 295.838 467.425 296.054 467.69 L 335.21 514.411 C 337.261 516.858 340.373 518.285 343.66 518.285 L 406.449 518.269 C 409.736 518.271 412.848 516.85 414.899 514.403 L 454.032 467.674 C 456.093 465.225 456.864 462.017 456.125 458.962 L 442.156 400.693 C 441.418 397.638 439.272 395.069 436.298 393.71 L 379.735 367.782 C 378.096 367.035 376.296 366.688 374.485 366.777 Z" fill="#326ce5" style="stroke-width: 1;"></path>
    <path d="M 375.049 386.607 C 373.172 386.607 371.665 388.222 371.665 390.216 C 371.665 390.247 371.665 390.276 371.665 390.305 C 371.665 390.577 371.655 390.904 371.665 391.139 C 371.709 392.288 371.969 393.171 372.121 394.229 C 372.413 396.497 372.652 398.375 372.501 400.125 C 372.358 400.782 371.85 401.386 371.405 401.805 L 371.318 403.18 C 369.267 403.342 367.218 403.643 365.2 404.083 C 356.414 405.997 348.844 410.343 343.085 416.211 C 342.672 415.939 342.261 415.66 341.859 415.377 C 341.252 415.458 340.644 415.636 339.853 415.19 C 338.334 414.213 336.956 412.861 335.286 411.233 C 334.516 410.455 333.963 409.713 333.052 408.962 C 332.845 408.793 332.531 408.562 332.303 408.385 C 331.588 407.841 330.752 407.558 329.939 407.532 C 328.897 407.499 327.9 407.888 327.249 408.677 C 326.077 410.08 326.457 412.227 328.073 413.468 C 328.094 413.481 328.117 413.49 328.127 413.503 C 328.355 413.677 328.627 413.9 328.832 414.045 C 329.798 414.729 330.677 415.079 331.631 415.62 C 333.659 416.822 335.341 417.818 336.675 419.016 C 337.195 419.549 337.282 420.485 337.347 420.89 L 338.432 421.821 C 332.629 430.211 329.939 440.576 331.533 451.136 L 330.112 451.531 C 329.733 451.994 329.212 452.723 328.659 452.941 C 326.912 453.467 324.95 453.661 322.585 453.9 C 321.479 453.989 320.514 453.935 319.343 454.149 C 319.083 454.196 318.724 454.287 318.432 454.35 L 318.409 454.358 C 318.387 454.36 318.377 454.368 318.354 454.372 C 316.359 454.833 315.079 456.594 315.491 458.329 C 315.904 460.063 317.856 461.12 319.863 460.703 C 319.874 460.701 319.895 460.701 319.906 460.695 C 319.938 460.691 319.949 460.68 319.971 460.675 C 320.254 460.618 320.611 460.551 320.849 460.489 C 322.011 460.189 322.845 459.753 323.887 459.37 C 326.132 458.599 327.986 457.955 329.798 457.703 C 330.546 457.647 331.338 458.151 331.739 458.363 L 333.214 458.12 C 336.61 468.227 343.725 476.394 352.737 481.519 L 352.119 482.936 C 352.347 483.486 352.586 484.231 352.424 484.775 C 351.761 486.408 350.644 488.135 349.365 490.06 C 348.736 490.949 348.107 491.639 347.542 492.655 C 347.413 492.901 347.239 493.276 347.11 493.531 C 346.241 495.318 346.882 497.375 348.552 498.148 C 350.232 498.925 352.314 498.106 353.225 496.314 C 353.225 496.312 353.225 496.31 353.225 496.308 C 353.225 496.306 353.225 496.304 353.225 496.301 C 353.356 496.047 353.54 495.715 353.648 495.474 C 354.126 494.42 354.289 493.515 354.625 492.497 C 355.525 490.336 356.013 488.07 357.25 486.659 C 357.586 486.271 358.139 486.125 358.704 485.977 L 359.473 484.643 C 367.327 487.538 376.123 488.315 384.909 486.401 C 386.882 485.969 388.824 485.407 390.711 484.721 C 390.928 485.086 391.33 485.793 391.438 485.971 C 392.024 486.151 392.653 486.245 393.162 486.975 C 394.095 488.489 394.724 490.28 395.495 492.442 C 395.831 493.46 395.994 494.365 396.471 495.419 C 396.579 495.66 396.764 495.998 396.894 496.252 C 397.794 498.05 399.888 498.872 401.579 498.093 C 403.25 497.32 403.89 495.263 403.011 493.476 C 402.881 493.217 402.707 492.845 402.567 492.6 C 402.013 491.584 401.373 490.9 400.755 490.011 C 399.475 488.086 398.411 486.488 397.751 484.852 C 397.48 484.008 397.805 483.484 398.011 482.936 C 397.88 482.796 397.609 481.998 397.447 481.624 C 406.818 476.316 413.727 467.844 416.97 458.058 C 417.404 458.124 418.163 458.254 418.413 458.3 C 418.923 457.979 419.389 457.558 420.311 457.627 C 422.111 457.879 423.977 458.523 426.212 459.294 C 427.252 459.677 428.088 460.121 429.249 460.42 C 429.497 460.482 429.845 460.539 430.127 460.6 C 430.148 460.604 430.171 460.616 430.192 460.62 C 430.203 460.624 430.225 460.624 430.246 460.626 C 432.253 461.041 434.194 459.987 434.607 458.254 C 435.019 456.518 433.739 454.757 431.743 454.297 C 431.45 454.232 431.038 454.125 430.766 454.073 C 429.585 453.86 428.63 453.911 427.512 453.824 C 425.149 453.585 423.185 453.392 421.439 452.866 C 420.734 452.601 420.225 451.789 419.986 451.455 L 418.619 451.074 C 419.324 446.152 419.129 441.029 417.903 435.902 C 416.666 430.728 414.476 425.997 411.569 421.828 C 411.916 421.523 412.579 420.959 412.762 420.795 C 412.816 420.21 412.773 419.6 413.402 418.954 C 414.736 417.755 416.406 416.759 418.435 415.557 C 419.4 415.016 420.29 414.666 421.245 413.982 C 421.472 413.829 421.765 413.584 421.993 413.405 C 423.619 412.162 423.988 410.019 422.827 408.615 C 421.656 407.213 419.4 407.08 417.772 408.323 C 417.545 408.499 417.232 408.728 417.024 408.9 C 416.113 409.651 415.55 410.393 414.791 411.171 C 413.119 412.8 411.742 414.156 410.223 415.134 C 409.573 415.502 408.608 415.375 408.174 415.351 L 406.884 416.233 C 399.54 408.842 389.54 404.119 378.779 403.2 C 378.747 402.767 378.715 401.984 378.704 401.749 C 378.259 401.344 377.728 400.998 377.597 400.125 C 377.445 398.375 377.696 396.497 377.977 394.229 C 378.129 393.171 378.39 392.291 378.444 391.139 C 378.454 390.878 378.434 390.499 378.434 390.216 C 378.434 388.222 376.914 386.607 375.049 386.607 Z M 370.808 411.81 L 369.8 428.854 L 369.735 428.889 C 369.658 430.414 368.356 431.632 366.751 431.632 C 366.091 431.632 365.483 431.43 364.994 431.085 L 364.962 431.098 L 350.406 421.188 C 354.874 416.966 360.601 413.844 367.197 412.407 C 368.389 412.149 369.593 411.948 370.808 411.81 Z M 379.29 411.81 C 387.002 412.719 394.118 416.065 399.573 421.198 L 385.115 431.042 L 385.06 431.022 C 383.78 431.922 381.969 431.697 380.96 430.494 C 380.57 430.021 380.341 429.44 380.309 428.834 L 380.299 428.827 L 379.29 411.81 Z M 345.125 427.557 L 358.411 438.971 L 358.399 439.042 C 359.603 440.042 359.778 441.78 358.779 442.983 C 358.379 443.46 357.846 443.803 357.228 443.964 L 357.218 444.019 L 340.178 448.741 C 339.31 441.127 341.175 433.727 345.125 427.557 Z M 404.876 427.564 C 406.851 430.636 408.348 434.071 409.237 437.791 C 410.116 441.468 410.343 445.138 409.975 448.686 L 392.848 443.95 L 392.837 443.879 C 391.297 443.478 390.353 441.981 390.711 440.479 C 390.852 439.886 391.189 439.354 391.665 438.957 L 391.655 438.923 L 404.876 427.564 Z M 372.316 439.853 L 377.771 439.853 L 381.155 443.914 L 379.941 448.984 L 375.049 451.239 L 370.146 448.978 L 368.932 443.908 L 372.316 439.853 Z M 389.778 453.753 C 390.017 453.741 390.245 453.761 390.473 453.801 L 390.494 453.768 L 408.131 456.627 C 405.55 463.586 400.614 469.613 394.009 473.647 L 387.175 457.781 L 387.197 457.752 C 386.569 456.351 387.197 454.706 388.639 454.038 C 389.009 453.866 389.399 453.773 389.778 453.753 Z M 360.178 453.824 C 361.523 453.842 362.727 454.738 363.043 456.052 C 363.183 456.667 363.117 457.278 362.869 457.815 L 362.923 457.877 L 356.154 473.584 C 349.821 469.684 344.777 463.846 342.086 456.683 L 359.561 453.837 L 359.593 453.87 C 359.788 453.837 359.984 453.819 360.178 453.824 Z M 374.94 460.705 C 375.417 460.687 375.906 460.784 376.339 460.988 C 376.925 461.262 377.381 461.694 377.673 462.211 L 377.739 462.211 L 386.351 477.151 C 385.223 477.515 384.073 477.822 382.912 478.076 C 376.318 479.511 369.756 479.077 363.801 477.132 L 372.403 462.217 L 372.413 462.217 C 372.912 461.317 373.878 460.74 374.94 460.703 L 374.94 460.705 Z" style="text-indent: 0px; text-align: start; line-height: normal; text-transform: none; marker: none; stroke-width: 0.25;" font-weight="400" color="#000000" fill="#ffffff" stroke="#ffffff" stroke-width=".25" overflow="visible" font-family="Sans"></path>
  </g>
</svg>