<svg xmlns="http://www.w3.org/2000/svg" viewBox="35.0377 19.6352 500 300" width="50px" height="50px">
  <path d="M 130.188 107.456 C 128.267 107.456 127.816 106.601 128.745 105.316 L 138.731 93.699 C 139.668 92.386 142.046 91.538 143.94 91.538 L 313.457 91.538 C 315.35 91.538 315.836 92.817 314.872 94.123 L 306.807 105.316 C 305.85 106.601 303.471 107.88 302.056 107.88 L 130.188 107.456 Z M 130.188 107.456" fill="#00c9ff" style="stroke-width: 6.836;"></path>
  <path d="M 58.474 147.038 C 56.58 147.038 56.122 146.184 57.059 144.871 L 67.045 133.254 C 67.981 131.975 70.36 131.121 72.253 131.121 L 288.762 131.121 C 290.655 131.121 291.619 132.399 291.134 133.705 L 287.347 144.016 C 286.862 145.726 284.968 146.608 283.075 146.608 L 58.474 147.038 Z M 58.474 147.038" fill="#00c9ff" style="stroke-width: 6.836;"></path>
  <path d="M 173.392 186.593 C 171.492 186.593 171.014 185.308 171.95 184.029 L 178.594 173.267 C 179.557 171.982 181.451 170.703 183.351 170.703 L 278.318 170.703 C 280.218 170.703 281.148 171.982 281.148 173.691 L 280.218 184.029 C 280.218 185.739 278.318 187.045 276.876 187.045 L 173.392 186.593 Z M 173.392 186.593" fill="#00c9ff" style="stroke-width: 6.836;"></path>
  <path d="M 460.651 104.94 C 464.363 108.338 466.898 112.612 468.211 117.76 C 469.755 122.731 469.967 127.51 468.874 132.078 C 466.898 141.616 462.736 149.678 456.352 156.248 C 450.214 162.607 443.085 167.763 434.965 171.742 C 426.851 175.537 418.383 178.313 409.627 180.104 C 401.056 181.677 393.366 182.477 386.586 182.477 C 382.635 182.477 377.133 182.081 370.113 181.301 C 363.306 180.501 362.328 173.294 356.183 170.703 C 354.42 172.091 347.496 179.516 346.402 181.889 C 345.309 184.084 344.536 186.06 344.106 187.845 C 343.012 192.412 343.894 196.097 346.751 198.88 C 349.82 201.472 356.628 202.962 367.147 203.366 L 401.377 204.569 C 411.042 204.938 419.722 205.957 427.385 207.53 C 435.074 208.918 441.321 211.324 446.154 214.689 C 451.198 217.868 454.616 222.141 456.352 227.509 C 458.327 232.692 458.436 239.153 456.7 246.9 C 455.149 254.462 451.759 261.43 446.475 267.789 C 441.431 274.359 434.404 280.021 425.409 284.773 C 416.653 289.552 405.888 293.245 393.154 295.829 C 380.66 298.612 366.053 300 349.369 300 C 342.342 300 334.68 299.412 326.328 298.209 C 318.208 297.224 310.655 295.111 303.628 291.932 C 296.82 288.752 291.564 284.294 287.825 278.523 C 284.087 272.944 283.205 265.703 285.18 256.76 C 286.732 248.985 290.122 241.936 295.378 235.577 C 300.669 229.41 306.458 224.439 312.842 220.671 C 309.103 217.465 306.704 213.998 305.604 210.23 C 304.483 206.251 304.483 201.766 305.604 196.795 C 307.128 189.848 310.306 183.469 315.139 177.725 C 320.183 171.954 340.845 151.018 346.341 147.038 C 341.296 142.471 347.694 152.994 346.143 147.038 C 344.837 140.864 344.823 137.288 346.129 131.121 C 348.323 121.186 341.645 114.635 347.81 107.88 C 353.955 100.933 346.86 91.217 354.974 87.046 C 363.306 82.882 371.979 79.887 380.981 78.103 C 389.976 76.127 398.52 75.108 406.667 75.108 C 412.593 75.108 417.638 75.32 421.8 75.723 C 426.182 76.127 430.03 76.605 433.311 77.193 C 436.838 77.59 440.016 77.993 442.873 78.397 C 445.723 78.793 445.614 84.961 448.683 84.961 L 452.107 91.538 L 454.158 96.543 L 457.938 100.625 C 454.65 100.625 463.898 104.892 459.947 104.701 C 456.236 104.304 464.151 105.343 460.651 104.94 Z M 364.85 235.283 C 360.237 235.071 354.864 234.777 348.726 234.374 C 342.8 233.977 337.968 233.095 334.229 231.707 C 332.042 234.08 330.066 236.562 328.303 239.153 C 326.567 241.936 325.234 245.109 324.352 248.691 C 323.259 253.259 323.471 256.944 325.015 259.72 C 326.779 262.715 329.287 265.013 332.602 266.585 C 335.883 268.185 339.834 269.286 344.427 269.874 C 349.259 270.455 354.201 270.777 359.245 270.777 C 377.242 270.777 390.188 268.992 398.096 265.409 C 405.998 261.833 410.721 256.835 412.245 250.483 C 413.338 245.327 412.135 241.642 408.643 239.447 C 405.116 237.259 399.962 236.083 393.154 235.871 L 364.85 235.283 Z M 426.742 128.796 C 427.836 124.037 427.836 120.058 426.742 116.885 C 425.86 113.487 424.097 110.82 421.459 108.817 C 419.053 106.841 416.093 105.453 412.593 104.646 C 409.067 103.661 405.328 103.155 401.377 103.155 C 397.426 103.155 393.476 103.661 389.525 104.646 C 385.602 105.453 381.863 106.841 378.336 108.817 C 375.055 110.82 372.089 113.487 369.443 116.885 C 367.044 120.058 365.281 124.037 364.187 128.796 C 363.306 133.575 363.306 137.664 364.187 141.028 C 365.281 144.208 367.044 146.799 369.443 148.775 C 372.089 150.778 375.158 152.166 378.685 152.966 C 382.184 153.766 385.916 154.142 389.874 154.142 C 393.824 154.142 397.775 153.766 401.726 152.966 C 405.676 152.166 409.278 150.881 412.593 149.09 C 416.093 147.086 419.053 144.502 421.459 141.322 C 423.885 137.958 425.648 133.76 426.742 128.796 Z M 426.742 128.796" fill="#124191" style="stroke-width: 6.836;"></path>
  <path d="M 404.925 40.055 C 403.493 40.124 402.083 40.465 400.781 41.06 L 344.218 67.001 C 341.257 68.36 339.097 70.932 338.371 73.987 L 324.412 132.253 C 323.761 134.965 324.293 137.813 325.887 140.148 C 326.071 140.431 326.278 140.703 326.494 140.968 L 365.65 187.689 C 367.701 190.136 370.813 191.563 374.1 191.563 L 436.889 191.547 C 440.176 191.549 443.288 190.128 445.339 187.681 L 484.472 140.952 C 486.533 138.503 487.304 135.295 486.565 132.24 L 472.596 73.971 C 471.858 70.916 469.712 68.347 466.738 66.988 L 410.175 41.06 C 408.536 40.313 406.736 39.966 404.925 40.055 Z" fill="#326ce5" style="stroke-width: 1;"></path>
  <path d="M 405.489 59.885 C 403.612 59.885 402.105 61.5 402.105 63.494 C 402.105 63.525 402.105 63.554 402.105 63.583 C 402.105 63.855 402.095 64.182 402.105 64.417 C 402.149 65.566 402.409 66.449 402.561 67.507 C 402.853 69.775 403.092 71.653 402.941 73.403 C 402.798 74.06 402.29 74.664 401.845 75.083 L 401.758 76.458 C 399.707 76.62 397.658 76.921 395.64 77.361 C 386.854 79.275 379.284 83.621 373.525 89.489 C 373.112 89.217 372.701 88.938 372.299 88.655 C 371.692 88.736 371.084 88.914 370.293 88.468 C 368.774 87.491 367.396 86.139 365.726 84.511 C 364.956 83.733 364.403 82.991 363.492 82.24 C 363.285 82.071 362.971 81.84 362.743 81.663 C 362.028 81.119 361.192 80.836 360.379 80.81 C 359.337 80.777 358.34 81.166 357.689 81.955 C 356.517 83.358 356.897 85.505 358.513 86.746 C 358.534 86.759 358.557 86.768 358.567 86.781 C 358.795 86.955 359.067 87.178 359.272 87.323 C 360.238 88.007 361.117 88.357 362.071 88.898 C 364.099 90.1 365.781 91.096 367.115 92.294 C 367.635 92.827 367.722 93.763 367.787 94.168 L 368.872 95.099 C 363.069 103.489 360.379 113.854 361.973 124.414 L 360.552 124.809 C 360.173 125.272 359.652 126.001 359.099 126.219 C 357.352 126.745 355.39 126.939 353.025 127.178 C 351.919 127.267 350.954 127.213 349.783 127.427 C 349.523 127.474 349.164 127.565 348.872 127.628 L 348.849 127.636 C 348.827 127.638 348.817 127.646 348.794 127.65 C 346.799 128.111 345.519 129.872 345.931 131.607 C 346.344 133.341 348.296 134.398 350.303 133.981 C 350.314 133.979 350.335 133.979 350.346 133.973 C 350.378 133.969 350.389 133.958 350.411 133.953 C 350.694 133.896 351.051 133.829 351.289 133.767 C 352.451 133.467 353.285 133.031 354.327 132.648 C 356.572 131.877 358.426 131.233 360.238 130.981 C 360.986 130.925 361.778 131.429 362.179 131.641 L 363.654 131.398 C 367.05 141.505 374.165 149.672 383.177 154.797 L 382.559 156.214 C 382.787 156.764 383.026 157.509 382.864 158.053 C 382.201 159.686 381.084 161.413 379.805 163.338 C 379.176 164.227 378.547 164.917 377.982 165.933 C 377.853 166.179 377.679 166.554 377.55 166.809 C 376.681 168.596 377.322 170.653 378.992 171.426 C 380.672 172.203 382.754 171.384 383.665 169.592 C 383.665 169.59 383.665 169.588 383.665 169.586 C 383.665 169.584 383.665 169.582 383.665 169.579 C 383.796 169.325 383.98 168.993 384.088 168.752 C 384.566 167.698 384.729 166.793 385.065 165.775 C 385.965 163.614 386.453 161.348 387.69 159.937 C 388.026 159.549 388.579 159.403 389.144 159.255 L 389.913 157.921 C 397.767 160.816 406.563 161.593 415.349 159.679 C 417.322 159.247 419.264 158.685 421.151 157.999 C 421.368 158.364 421.77 159.071 421.878 159.249 C 422.464 159.429 423.093 159.523 423.602 160.253 C 424.535 161.767 425.164 163.558 425.935 165.72 C 426.271 166.738 426.434 167.643 426.911 168.697 C 427.019 168.938 427.204 169.276 427.334 169.53 C 428.234 171.328 430.328 172.15 432.019 171.371 C 433.69 170.598 434.33 168.541 433.451 166.754 C 433.321 166.495 433.147 166.123 433.007 165.878 C 432.453 164.862 431.813 164.178 431.195 163.289 C 429.915 161.364 428.851 159.766 428.191 158.13 C 427.92 157.286 428.245 156.762 428.451 156.214 C 428.32 156.074 428.049 155.276 427.887 154.902 C 437.258 149.594 444.167 141.122 447.41 131.336 C 447.844 131.402 448.603 131.532 448.853 131.578 C 449.363 131.257 449.829 130.836 450.751 130.905 C 452.551 131.157 454.417 131.801 456.652 132.572 C 457.692 132.955 458.528 133.399 459.689 133.698 C 459.937 133.76 460.285 133.817 460.567 133.878 C 460.588 133.882 460.611 133.894 460.632 133.898 C 460.643 133.902 460.665 133.902 460.686 133.904 C 462.693 134.319 464.634 133.265 465.047 131.532 C 465.459 129.796 464.179 128.035 462.183 127.575 C 461.89 127.51 461.478 127.403 461.206 127.351 C 460.025 127.138 459.07 127.189 457.952 127.102 C 455.589 126.863 453.625 126.67 451.879 126.144 C 451.174 125.879 450.665 125.067 450.426 124.733 L 449.059 124.352 C 449.764 119.43 449.569 114.307 448.343 109.18 C 447.106 104.006 444.916 99.275 442.009 95.106 C 442.356 94.801 443.019 94.237 443.202 94.073 C 443.256 93.488 443.213 92.878 443.842 92.232 C 445.176 91.033 446.846 90.037 448.875 88.835 C 449.84 88.294 450.73 87.944 451.685 87.26 C 451.912 87.107 452.205 86.862 452.433 86.683 C 454.059 85.44 454.428 83.297 453.267 81.893 C 452.096 80.491 449.84 80.358 448.212 81.601 C 447.985 81.777 447.672 82.006 447.464 82.178 C 446.553 82.929 445.99 83.671 445.231 84.449 C 443.559 86.078 442.182 87.434 440.663 88.412 C 440.013 88.78 439.048 88.653 438.614 88.629 L 437.324 89.511 C 429.98 82.12 419.98 77.397 409.219 76.478 C 409.187 76.045 409.155 75.262 409.144 75.027 C 408.699 74.622 408.168 74.276 408.037 73.403 C 407.885 71.653 408.136 69.775 408.417 67.507 C 408.569 66.449 408.83 65.569 408.884 64.417 C 408.894 64.156 408.874 63.777 408.874 63.494 C 408.874 61.5 407.354 59.885 405.489 59.885 Z M 401.248 85.088 L 400.24 102.132 L 400.175 102.167 C 400.098 103.692 398.796 104.91 397.191 104.91 C 396.531 104.91 395.923 104.708 395.434 104.363 L 395.402 104.376 L 380.846 94.466 C 385.314 90.244 391.041 87.122 397.637 85.685 C 398.829 85.427 400.033 85.226 401.248 85.088 Z M 409.73 85.088 C 417.442 85.997 424.558 89.343 430.013 94.476 L 415.555 104.32 L 415.5 104.3 C 414.22 105.2 412.409 104.975 411.4 103.772 C 411.01 103.299 410.781 102.718 410.749 102.112 L 410.739 102.105 L 409.73 85.088 Z M 375.565 100.835 L 388.851 112.249 L 388.839 112.32 C 390.043 113.32 390.218 115.058 389.219 116.261 C 388.819 116.738 388.286 117.081 387.668 117.242 L 387.658 117.297 L 370.618 122.019 C 369.75 114.405 371.615 107.005 375.565 100.835 Z M 435.316 100.842 C 437.291 103.914 438.788 107.349 439.677 111.069 C 440.556 114.746 440.783 118.416 440.415 121.964 L 423.288 117.228 L 423.277 117.157 C 421.737 116.756 420.793 115.259 421.151 113.757 C 421.292 113.164 421.629 112.632 422.105 112.235 L 422.095 112.201 L 435.316 100.842 Z M 402.756 113.131 L 408.211 113.131 L 411.595 117.192 L 410.381 122.262 L 405.489 124.517 L 400.586 122.256 L 399.372 117.186 L 402.756 113.131 Z M 420.218 127.031 C 420.457 127.019 420.685 127.039 420.913 127.079 L 420.934 127.046 L 438.571 129.905 C 435.99 136.864 431.054 142.891 424.449 146.925 L 417.615 131.059 L 417.637 131.03 C 417.009 129.629 417.637 127.984 419.079 127.316 C 419.449 127.144 419.839 127.051 420.218 127.031 Z M 390.618 127.102 C 391.963 127.12 393.167 128.016 393.483 129.33 C 393.623 129.945 393.557 130.556 393.309 131.093 L 393.363 131.155 L 386.594 146.862 C 380.261 142.962 375.217 137.124 372.526 129.961 L 390.001 127.115 L 390.033 127.148 C 390.228 127.115 390.424 127.097 390.618 127.102 Z M 405.38 133.983 C 405.857 133.965 406.346 134.062 406.779 134.266 C 407.365 134.54 407.821 134.972 408.113 135.489 L 408.179 135.489 L 416.791 150.429 C 415.663 150.793 414.513 151.1 413.352 151.354 C 406.758 152.789 400.196 152.355 394.241 150.41 L 402.843 135.495 L 402.853 135.495 C 403.352 134.595 404.318 134.018 405.38 133.981 L 405.38 133.983 Z" style="text-indent: 0px; text-align: start; line-height: normal; text-transform: none; marker: none; stroke-width: 0.25;" font-weight="400" color="#000000" fill="#ffffff" stroke="#ffffff" stroke-width=".25" overflow="visible" font-family="Sans"></path>
</svg>