<svg xmlns="http://www.w3.org/2000/svg" viewBox="0 0 190 60">
  <g transform="matrix(1.061599, 0, 0, 1.104498, -12.329547, -7.504973)" style="">
    <path d="M24.941 27.016C24.66 27.016 24.594 26.891 24.73 26.703L26.191 25.004C26.328 24.812 26.676 24.688 26.953 24.688H51.754C52.031 24.688 52.102 24.875 51.961 25.066L50.781 26.703C50.641 26.891 50.293 27.078 50.086 27.078ZM24.941 27.016" fill="#00c9ff"></path>
    <path d="M14.449 32.805C14.172 32.805 14.105 32.68 14.242 32.488L15.703 30.789C15.84 30.602 16.188 30.477 16.465 30.477H48.141C48.418 30.477 48.559 30.664 48.488 30.855L47.934 32.363C47.863 32.613 47.586 32.742 47.309 32.742ZM14.449 32.805" fill="#00c9ff"></path>
    <path d="M31.262 38.59C30.984 38.59 30.914 38.402 31.051 38.215L32.023 36.641C32.164 36.453 32.441 36.266 32.719 36.266H46.613C46.891 36.266 47.027 36.453 47.027 36.703L46.891 38.215C46.891 38.465 46.613 38.656 46.402 38.656ZM31.262 38.59" fill="#00c9ff"></path>
    <path d="M73.289 26.648C73.832 27.145 74.203 27.77 74.395 28.523 74.621 29.25 74.652 29.949 74.492 30.617 74.203 32.012 73.594 33.191 72.66 34.152 71.762 35.082 70.719 35.836 69.531 36.418 68.344 36.973 67.105 37.379 65.824 37.641 64.57 37.871 63.445 37.988 62.453 37.988 61.875 37.988 61.07 37.93 60.043 37.816 59.047 37.699 58.102 37.453 57.203 37.074 56.945 37.277 56.734 37.555 56.574 37.902 56.414 38.223 56.301 38.512 56.238 38.773 56.078 39.441 56.207 39.98 56.625 40.387 57.074 40.766 58.07 40.984 59.609 41.043L64.617 41.219C66.031 41.273 67.301 41.422 68.422 41.652 69.547 41.855 70.461 42.207 71.168 42.699 71.906 43.164 72.406 43.789 72.66 44.574 72.949 45.332 72.965 46.277 72.711 47.41 72.484 48.516 71.988 49.535 71.215 50.465 70.477 51.426 69.449 52.254 68.133 52.949 66.852 53.648 65.277 54.188 63.414 54.566 61.586 54.973 59.449 55.176 57.008 55.176 55.98 55.176 54.859 55.09 53.637 54.914 52.449 54.77 51.344 54.461 50.316 53.996 49.32 53.531 48.551 52.879 48.004 52.035 47.457 51.219 47.328 50.16 47.617 48.852 47.844 47.715 48.34 46.684 49.109 45.754 49.883 44.852 50.73 44.125 51.664 43.574 51.117 43.105 50.766 42.598 50.605 42.047 50.441 41.465 50.441 40.809 50.605 40.082 50.828 39.066 51.293 38.133 52 37.293 52.738 36.449 53.508 35.734 54.312 35.152 53.574 34.484 53.094 33.715 52.867 32.844 52.676 31.941 52.676 31.039 52.867 30.137 53.188 28.684 53.797 27.461 54.699 26.473 55.598 25.457 56.641 24.641 57.828 24.031 59.047 23.422 60.316 22.984 61.633 22.723 62.949 22.434 64.199 22.285 65.391 22.285 66.258 22.285 66.996 22.316 67.605 22.375 68.246 22.434 68.809 22.504 69.289 22.59 69.805 22.648 70.27 22.707 70.688 22.766 71.105 22.824 71.539 22.852 71.988 22.852H78.102L77.188 26.867H76.465C75.984 26.867 75.453 26.852 74.875 26.824 74.332 26.766 73.801 26.707 73.289 26.648ZM59.273 45.711C58.598 45.68 57.812 45.637 56.914 45.578 56.047 45.52 55.34 45.391 54.793 45.188 54.473 45.535 54.184 45.898 53.926 46.277 53.672 46.684 53.477 47.148 53.348 47.672 53.188 48.34 53.219 48.879 53.445 49.285 53.703 49.723 54.07 50.059 54.555 50.289 55.035 50.523 55.613 50.684 56.285 50.77 56.992 50.855 57.715 50.902 58.453 50.902 61.086 50.902 62.98 50.641 64.137 50.117 65.293 49.594 65.984 48.863 66.207 47.934 66.367 47.18 66.191 46.641 65.68 46.32 65.164 46 64.41 45.828 63.414 45.797ZM68.328 30.137C68.488 29.441 68.488 28.859 68.328 28.395 68.199 27.898 67.941 27.508 67.555 27.215 67.203 26.926 66.77 26.723 66.258 26.605 65.742 26.461 65.195 26.387 64.617 26.387 64.039 26.387 63.461 26.461 62.883 26.605 62.309 26.723 61.762 26.926 61.246 27.215 60.766 27.508 60.332 27.898 59.945 28.395 59.594 28.859 59.336 29.441 59.176 30.137 59.047 30.836 59.047 31.434 59.176 31.926 59.336 32.391 59.594 32.77 59.945 33.059 60.332 33.352 60.781 33.555 61.297 33.672 61.809 33.789 62.355 33.844 62.934 33.844 63.512 33.844 64.09 33.789 64.668 33.672 65.246 33.555 65.773 33.367 66.258 33.105 66.77 32.812 67.203 32.434 67.555 31.969 67.91 31.477 68.168 30.863 68.328 30.137ZM68.328 30.137" fill="#124191"></path>
    <path d="M88.395 23.465 83.676 44.836H77.27L84.059 14.172H90.852L99.52 35.109 104.145 14.172H110.547L103.758 44.836H97.496ZM88.395 23.465" fill="#124191"></path>
    <path d="M149.812 14.172 143.02 44.836H136.617L141.191 24.117 130.836 37.555H125.828L121.734 24.641 117.254 44.836H110.852L117.641 14.172H124.863L129.969 31.055 142.539 14.172ZM149.812 14.172" fill="#124191"></path>
    <path d="M156.961 44.836H150.168L156.961 14.172H163.75ZM156.961 44.836" fill="#124191"></path>
    <path d="M171.457 33.844C170.977 36.113 171.152 37.77 171.988 38.816 172.824 39.863 174.254 40.387 176.273 40.387 177.625 40.387 178.746 40.227 179.645 39.91 180.578 39.59 181.301 39.297 181.812 39.035L183.355 43.004C183.035 43.18 182.602 43.414 182.055 43.703 181.508 43.965 180.867 44.227 180.129 44.488 179.391 44.75 178.539 44.969 177.574 45.145 176.645 45.348 175.633 45.449 174.539 45.449 170.527 45.449 167.734 44.414 166.16 42.352 164.586 40.258 164.188 37.422 164.957 33.844 165.344 32.129 165.969 30.559 166.836 29.133 167.734 27.711 168.809 26.488 170.062 25.469 171.348 24.453 172.793 23.668 174.398 23.113 176 22.562 177.734 22.285 179.598 22.285 180.785 22.285 181.844 22.418 182.777 22.68 183.738 22.91 184.559 23.188 185.234 23.508 185.906 23.828 186.422 24.148 186.773 24.469 187.16 24.758 187.414 24.961 187.543 25.078L183.738 29.09C183.609 29.004 183.402 28.859 183.113 28.656 182.855 28.453 182.52 28.262 182.102 28.086 181.684 27.883 181.203 27.711 180.656 27.562 180.145 27.418 179.582 27.348 178.973 27.348 177.141 27.348 175.551 27.883 174.203 28.961 172.855 30.035 171.941 31.664 171.457 33.844ZM171.457 33.844" fill="#124191"></path>
  </g>
  <path d="M 57.062 8.041 C 56.791 8.054 56.526 8.12 56.282 8.235 L 45.654 13.257 C 45.097 13.52 44.692 14.018 44.556 14.609 L 41.932 25.889 C 41.81 26.414 41.91 26.966 42.208 27.417 C 42.245 27.472 42.283 27.524 42.324 27.576 L 49.681 36.62 C 50.067 37.095 50.652 37.37 51.269 37.37 L 63.066 37.367 C 63.684 37.368 64.268 37.092 64.655 36.618 L 72.008 27.571 C 72.393 27.097 72.538 26.479 72.401 25.886 L 69.774 14.606 C 69.637 14.015 69.233 13.518 68.675 13.255 L 58.046 8.235 C 57.741 8.09 57.4 8.024 57.062 8.041 Z" fill="#326ce5" style="stroke-width: 1;"></path>
  <path d="M 57.2 12.106 C 56.847 12.106 56.559 12.416 56.559 12.799 C 56.559 12.805 56.561 12.811 56.561 12.816 C 56.561 12.868 56.558 12.931 56.559 12.976 C 56.569 13.196 56.618 13.366 56.648 13.569 C 56.702 14.005 56.746 14.365 56.718 14.7 C 56.692 14.827 56.596 14.942 56.511 15.022 L 56.496 15.286 C 56.107 15.318 55.72 15.375 55.339 15.459 C 53.679 15.827 52.246 16.661 51.158 17.786 C 51.08 17.734 51.003 17.681 50.926 17.627 C 50.811 17.642 50.696 17.676 50.547 17.592 C 50.261 17.403 49.999 17.145 49.683 16.832 C 49.539 16.682 49.434 16.54 49.261 16.397 C 49.223 16.364 49.163 16.319 49.12 16.287 C 48.985 16.182 48.827 16.126 48.674 16.122 C 48.477 16.115 48.288 16.19 48.165 16.342 C 47.945 16.611 48.015 17.022 48.322 17.262 C 48.324 17.263 48.328 17.265 48.331 17.268 C 48.374 17.301 48.424 17.343 48.463 17.372 C 48.646 17.503 48.813 17.569 48.995 17.673 C 49.377 17.905 49.694 18.095 49.946 18.325 C 50.044 18.427 50.062 18.607 50.075 18.686 L 50.28 18.863 C 49.182 20.474 48.673 22.462 48.974 24.489 L 48.707 24.564 C 48.635 24.653 48.536 24.793 48.431 24.835 C 48.103 24.936 47.731 24.973 47.284 25.018 C 47.074 25.036 46.892 25.025 46.67 25.067 C 46.621 25.076 46.554 25.094 46.499 25.106 L 46.494 25.107 C 46.491 25.108 46.487 25.11 46.484 25.11 C 46.107 25.199 45.865 25.536 45.942 25.869 C 46.021 26.201 46.389 26.404 46.768 26.325 C 46.771 26.324 46.775 26.324 46.777 26.323 C 46.783 26.322 46.786 26.32 46.79 26.319 C 46.844 26.308 46.909 26.296 46.956 26.283 C 47.175 26.226 47.334 26.144 47.53 26.069 C 47.953 25.92 48.304 25.796 48.646 25.749 C 48.789 25.738 48.939 25.835 49.014 25.876 L 49.293 25.829 C 49.934 27.768 51.279 29.336 52.984 30.319 L 52.867 30.591 C 52.909 30.696 52.955 30.84 52.925 30.944 C 52.8 31.257 52.587 31.59 52.344 31.957 C 52.227 32.129 52.108 32.26 52.002 32.456 C 51.976 32.502 51.944 32.575 51.92 32.623 C 51.755 32.967 51.876 33.362 52.192 33.509 C 52.509 33.659 52.904 33.501 53.075 33.158 C 53.075 33.157 53.077 33.157 53.077 33.157 C 53.077 33.156 53.077 33.155 53.077 33.155 C 53.101 33.106 53.135 33.043 53.156 32.998 C 53.246 32.795 53.277 32.622 53.34 32.426 C 53.509 32.011 53.603 31.577 53.835 31.305 C 53.899 31.231 54.003 31.203 54.111 31.175 L 54.256 30.919 C 55.742 31.475 57.403 31.624 59.065 31.257 C 59.436 31.173 59.804 31.066 60.162 30.933 C 60.203 31.003 60.279 31.14 60.298 31.173 C 60.408 31.208 60.528 31.225 60.625 31.367 C 60.8 31.657 60.92 32 61.065 32.415 C 61.128 32.611 61.16 32.785 61.251 32.987 C 61.271 33.034 61.305 33.098 61.329 33.147 C 61.499 33.491 61.896 33.649 62.214 33.499 C 62.53 33.351 62.651 32.956 62.485 32.613 C 62.462 32.565 62.429 32.492 62.404 32.446 C 62.297 32.25 62.177 32.119 62.06 31.948 C 61.817 31.58 61.617 31.272 61.492 30.958 C 61.441 30.796 61.501 30.696 61.543 30.591 C 61.517 30.563 61.466 30.411 61.436 30.338 C 63.205 29.32 64.511 27.695 65.124 25.816 C 65.206 25.829 65.352 25.855 65.398 25.864 C 65.494 25.802 65.583 25.722 65.756 25.734 C 66.097 25.782 66.448 25.906 66.872 26.054 C 67.069 26.127 67.227 26.213 67.446 26.271 C 67.493 26.282 67.558 26.293 67.612 26.305 C 67.615 26.305 67.619 26.307 67.623 26.309 C 67.627 26.309 67.631 26.309 67.632 26.31 C 68.013 26.39 68.382 26.188 68.459 25.855 C 68.538 25.523 68.294 25.184 67.918 25.096 C 67.863 25.083 67.786 25.063 67.731 25.052 C 67.509 25.011 67.328 25.022 67.118 25.005 C 66.67 24.959 66.3 24.921 65.971 24.821 C 65.837 24.77 65.742 24.613 65.694 24.55 L 65.437 24.476 C 65.57 23.532 65.535 22.548 65.301 21.565 C 65.068 20.572 64.655 19.665 64.103 18.865 C 64.17 18.806 64.294 18.698 64.329 18.667 C 64.34 18.555 64.33 18.437 64.45 18.313 C 64.702 18.083 65.019 17.892 65.401 17.662 C 65.584 17.558 65.752 17.491 65.934 17.359 C 65.975 17.33 66.032 17.283 66.075 17.25 C 66.382 17.01 66.452 16.599 66.232 16.329 C 66.012 16.061 65.585 16.034 65.278 16.274 C 65.235 16.308 65.174 16.35 65.136 16.384 C 64.963 16.528 64.858 16.671 64.713 16.82 C 64.397 17.132 64.136 17.392 63.85 17.581 C 63.727 17.651 63.544 17.627 63.461 17.622 L 63.219 17.792 C 61.83 16.373 59.941 15.466 57.906 15.289 C 57.899 15.207 57.893 15.057 57.89 15.012 C 57.806 14.933 57.706 14.868 57.682 14.7 C 57.654 14.365 57.7 14.005 57.754 13.569 C 57.783 13.366 57.834 13.196 57.842 12.976 C 57.843 12.926 57.841 12.852 57.841 12.799 C 57.841 12.416 57.553 12.106 57.2 12.106 Z M 56.399 16.942 L 56.21 20.213 L 56.195 20.219 C 56.183 20.514 55.935 20.746 55.632 20.746 C 55.508 20.746 55.393 20.707 55.299 20.641 L 55.295 20.644 L 52.541 18.743 C 53.388 17.932 54.47 17.332 55.717 17.057 C 55.941 17.008 56.17 16.969 56.399 16.942 Z M 58.003 16.942 C 59.458 17.116 60.805 17.759 61.837 18.744 L 59.103 20.633 L 59.092 20.63 C 58.851 20.801 58.507 20.759 58.319 20.527 C 58.244 20.437 58.2 20.325 58.196 20.21 L 58.193 20.208 L 58.003 16.942 Z M 51.544 19.964 L 54.056 22.154 L 54.054 22.168 C 54.28 22.36 54.314 22.694 54.125 22.925 C 54.051 23.016 53.949 23.081 53.832 23.113 L 53.829 23.123 L 50.608 24.029 C 50.444 22.569 50.797 21.147 51.544 19.964 Z M 62.839 19.965 C 63.213 20.555 63.495 21.214 63.664 21.928 C 63.829 22.634 63.873 23.339 63.804 24.019 L 60.566 23.111 L 60.563 23.096 C 60.273 23.019 60.095 22.732 60.162 22.444 C 60.189 22.329 60.25 22.227 60.341 22.152 L 60.34 22.146 L 62.839 19.966 L 62.839 19.965 Z M 56.685 22.323 L 57.714 22.323 L 58.354 23.103 L 58.125 24.076 L 57.2 24.508 L 56.274 24.074 L 56.043 23.101 L 56.685 22.323 Z M 59.986 24.991 C 60.029 24.99 60.074 24.993 60.116 25 L 60.12 24.994 L 63.453 25.542 C 62.966 26.878 62.033 28.035 60.786 28.809 L 59.493 25.765 L 59.497 25.758 C 59.376 25.489 59.497 25.175 59.769 25.046 C 59.84 25.013 59.913 24.995 59.986 24.991 Z M 54.388 25.005 C 54.643 25.007 54.871 25.179 54.93 25.432 C 54.958 25.55 54.944 25.667 54.899 25.77 L 54.907 25.782 L 53.628 28.796 C 52.432 28.048 51.478 26.928 50.969 25.553 L 54.272 25.007 L 54.279 25.014 C 54.315 25.007 54.353 25.004 54.388 25.005 Z M 57.181 26.325 C 57.272 26.322 57.362 26.34 57.444 26.379 C 57.556 26.432 57.643 26.514 57.696 26.614 L 57.709 26.614 L 59.337 29.481 C 59.124 29.551 58.907 29.609 58.686 29.659 C 57.442 29.933 56.199 29.851 55.075 29.477 L 56.699 26.615 L 56.703 26.615 C 56.797 26.442 56.98 26.332 57.181 26.325 Z" style="text-indent: 0px; text-align: start; line-height: normal; text-transform: none; marker: none; stroke-width: 0.25;" font-weight="400" color="#000000" fill="#ffffff" stroke="#ffffff" stroke-width=".25" overflow="visible" font-family="Sans"></path>
</svg>