<svg xmlns="http://www.w3.org/2000/svg" xmlns:xlink="http://www.w3.org/1999/xlink" xmlns:inkscape="http://www.inkscape.org/namespaces/inkscape" version="1.1" width="201.71753" height="69.34844" viewBox="0 0 201.71753 69.34844">
<g>
<path d="M24.941 27.016C24.66 27.016 24.594 26.891 24.73 26.703L26.191 25.004C26.328 24.812 26.676 24.688 26.953 24.688H51.754C52.031 24.688 52.102 24.875 51.961 25.066L50.781 26.703C50.641 26.891 50.293 27.078 50.086 27.078ZM24.941 27.016" fill="#00c9ff"/>
<path d="M14.449 32.805C14.172 32.805 14.105 32.68 14.242 32.488L15.703 30.789C15.84 30.602 16.188 30.477 16.465 30.477H48.141C48.418 30.477 48.559 30.664 48.488 30.855L47.934 32.363C47.863 32.613 47.586 32.742 47.309 32.742ZM14.449 32.805" fill="#00c9ff"/>
<path d="M31.262 38.59C30.984 38.59 30.914 38.402 31.051 38.215L32.023 36.641C32.164 36.453 32.441 36.266 32.719 36.266H46.613C46.891 36.266 47.027 36.453 47.027 36.703L46.891 38.215C46.891 38.465 46.613 38.656 46.402 38.656ZM31.262 38.59" fill="#00c9ff"/>
<path d="M73.289 26.648C73.832 27.145 74.203 27.77 74.395 28.523 74.621 29.25 74.652 29.949 74.492 30.617 74.203 32.012 73.594 33.191 72.66 34.152 71.762 35.082 70.719 35.836 69.531 36.418 68.344 36.973 67.105 37.379 65.824 37.641 64.57 37.871 63.445 37.988 62.453 37.988 61.875 37.988 61.07 37.93 60.043 37.816 59.047 37.699 58.102 37.453 57.203 37.074 56.945 37.277 56.734 37.555 56.574 37.902 56.414 38.223 56.301 38.512 56.238 38.773 56.078 39.441 56.207 39.98 56.625 40.387 57.074 40.766 58.07 40.984 59.609 41.043L64.617 41.219C66.031 41.273 67.301 41.422 68.422 41.652 69.547 41.855 70.461 42.207 71.168 42.699 71.906 43.164 72.406 43.789 72.66 44.574 72.949 45.332 72.965 46.277 72.711 47.41 72.484 48.516 71.988 49.535 71.215 50.465 70.477 51.426 69.449 52.254 68.133 52.949 66.852 53.648 65.277 54.188 63.414 54.566 61.586 54.973 59.449 55.176 57.008 55.176 55.98 55.176 54.859 55.09 53.637 54.914 52.449 54.77 51.344 54.461 50.316 53.996 49.32 53.531 48.551 52.879 48.004 52.035 47.457 51.219 47.328 50.16 47.617 48.852 47.844 47.715 48.34 46.684 49.109 45.754 49.883 44.852 50.73 44.125 51.664 43.574 51.117 43.105 50.766 42.598 50.605 42.047 50.441 41.465 50.441 40.809 50.605 40.082 50.828 39.066 51.293 38.133 52 37.293 52.738 36.449 53.508 35.734 54.312 35.152 53.574 34.484 53.094 33.715 52.867 32.844 52.676 31.941 52.676 31.039 52.867 30.137 53.188 28.684 53.797 27.461 54.699 26.473 55.598 25.457 56.641 24.641 57.828 24.031 59.047 23.422 60.316 22.984 61.633 22.723 62.949 22.434 64.199 22.285 65.391 22.285 66.258 22.285 66.996 22.316 67.605 22.375 68.246 22.434 68.809 22.504 69.289 22.59 69.805 22.648 70.27 22.707 70.688 22.766 71.105 22.824 71.539 22.852 71.988 22.852H78.102L77.188 26.867H76.465C75.984 26.867 75.453 26.852 74.875 26.824 74.332 26.766 73.801 26.707 73.289 26.648ZM59.273 45.711C58.598 45.68 57.812 45.637 56.914 45.578 56.047 45.52 55.34 45.391 54.793 45.188 54.473 45.535 54.184 45.898 53.926 46.277 53.672 46.684 53.477 47.148 53.348 47.672 53.188 48.34 53.219 48.879 53.445 49.285 53.703 49.723 54.07 50.059 54.555 50.289 55.035 50.523 55.613 50.684 56.285 50.77 56.992 50.855 57.715 50.902 58.453 50.902 61.086 50.902 62.98 50.641 64.137 50.117 65.293 49.594 65.984 48.863 66.207 47.934 66.367 47.18 66.191 46.641 65.68 46.32 65.164 46 64.41 45.828 63.414 45.797ZM68.328 30.137C68.488 29.441 68.488 28.859 68.328 28.395 68.199 27.898 67.941 27.508 67.555 27.215 67.203 26.926 66.77 26.723 66.258 26.605 65.742 26.461 65.195 26.387 64.617 26.387 64.039 26.387 63.461 26.461 62.883 26.605 62.309 26.723 61.762 26.926 61.246 27.215 60.766 27.508 60.332 27.898 59.945 28.395 59.594 28.859 59.336 29.441 59.176 30.137 59.047 30.836 59.047 31.434 59.176 31.926 59.336 32.391 59.594 32.77 59.945 33.059 60.332 33.352 60.781 33.555 61.297 33.672 61.809 33.789 62.355 33.844 62.934 33.844 63.512 33.844 64.09 33.789 64.668 33.672 65.246 33.555 65.773 33.367 66.258 33.105 66.77 32.812 67.203 32.434 67.555 31.969 67.91 31.477 68.168 30.863 68.328 30.137ZM68.328 30.137" fill="#124191"/>
<path d="M88.395 23.465 83.676 44.836H77.27L84.059 14.172H90.852L99.52 35.109 104.145 14.172H110.547L103.758 44.836H97.496ZM88.395 23.465" fill="#124191"/>
<path d="M149.812 14.172 143.02 44.836H136.617L141.191 24.117 130.836 37.555H125.828L121.734 24.641 117.254 44.836H110.852L117.641 14.172H124.863L129.969 31.055 142.539 14.172ZM149.812 14.172" fill="#124191"/>
<path d="M156.961 44.836H150.168L156.961 14.172H163.75ZM156.961 44.836" fill="#124191"/>
<path d="M171.457 33.844C170.977 36.113 171.152 37.77 171.988 38.816 172.824 39.863 174.254 40.387 176.273 40.387 177.625 40.387 178.746 40.227 179.645 39.91 180.578 39.59 181.301 39.297 181.812 39.035L183.355 43.004C183.035 43.18 182.602 43.414 182.055 43.703 181.508 43.965 180.867 44.227 180.129 44.488 179.391 44.75 178.539 44.969 177.574 45.145 176.645 45.348 175.633 45.449 174.539 45.449 170.527 45.449 167.734 44.414 166.16 42.352 164.586 40.258 164.188 37.422 164.957 33.844 165.344 32.129 165.969 30.559 166.836 29.133 167.734 27.711 168.809 26.488 170.062 25.469 171.348 24.453 172.793 23.668 174.398 23.113 176 22.562 177.734 22.285 179.598 22.285 180.785 22.285 181.844 22.418 182.777 22.68 183.738 22.91 184.559 23.188 185.234 23.508 185.906 23.828 186.422 24.148 186.773 24.469 187.16 24.758 187.414 24.961 187.543 25.078L183.738 29.09C183.609 29.004 183.402 28.859 183.113 28.656 182.855 28.453 182.52 28.262 182.102 28.086 181.684 27.883 181.203 27.711 180.656 27.562 180.145 27.418 179.582 27.348 178.973 27.348 177.141 27.348 175.551 27.883 174.203 28.961 172.855 30.035 171.941 31.664 171.457 33.844ZM171.457 33.844" fill="#124191"/>
</g>
</svg>
